<?xml version="1.0"?>
<svg xmlns:rdf="http://www.w3.org/1999/02/22-rdf-syntax-ns#" xmlns="http://www.w3.org/2000/svg" xmlns:cc="http://web.resource.org/cc/" xmlns:dc="http://purl.org/dc/elements/1.1/" xmlns:svg="http://www.w3.org/2000/svg" id="svg2989" viewBox="0 0 422.04 468.44" version="1.0">
  <g id="layer1" transform="translate(-171.84 -272.42)">
    <g id="g1989" stroke="#000" stroke-width="2" fill="#ff7f2a" transform="matrix(3.3799 0 0 3.2813 -1903.1 -2411.3)">
      <path id="path1991" stroke="#000" stroke-width="2" fill="#ff7f2a" d="m653.39 946.79c-160.62-201.21 248.82-137.02 4.55 0.64-2.37 0.8-20.96 6.25-21.08 6.82-1.94 8.83 11.3 3.86 15.1 1.84-1.44 6.53 26.57 2.75 19.12-1.29-5.85-3.17-12.68-3.75-17.69-8.01z"/>
    </g>
    <g id="g1997" transform="matrix(3.3799 0 0 3.2813 -1903.1 -2411.3)" fill="#fff">
      <path id="path1999" d="m700.19 842.32c4.1-1.86 6.86-3.39 11.83-6.29 4.52 1.81 19.97 17.92 17.62 22.02-1.28 2.24-1.91 2.3-3.07 0.73-6.47-8.81-22.49-17.09-26.38-16.46z" fill="#fff"/>
    </g>
  </g>
  <metadata>
    <rdf:RDF>
      <cc:Work>
        <dc:format>image/svg+xml</dc:format>
        <dc:type rdf:resource="http://purl.org/dc/dcmitype/StillImage"/>
        <cc:license rdf:resource="http://creativecommons.org/licenses/publicdomain/"/>
        <dc:publisher>
          <cc:Agent rdf:about="http://openclipart.org/">
            <dc:title>Openclipart</dc:title>
          </cc:Agent>
        </dc:publisher>
        <dc:title>Toy baloon</dc:title>
        <dc:date>2006-10-21T06:10:16</dc:date>
        <dc:description>2D orange party baloon</dc:description>
        <dc:source>http://openclipart.org/detail/808/toy-baloon-by-karderio</dc:source>
        <dc:creator>
          <cc:Agent>
            <dc:title>karderio</dc:title>
          </cc:Agent>
        </dc:creator>
        <dc:subject>
          <rdf:Bag>
            <rdf:li>clip art</rdf:li>
            <rdf:li>clipart</rdf:li>
            <rdf:li>image</rdf:li>
            <rdf:li>line art</rdf:li>
            <rdf:li>media</rdf:li>
            <rdf:li>party baloon</rdf:li>
            <rdf:li>public domain</rdf:li>
            <rdf:li>svg</rdf:li>
            <rdf:li>toy baloon</rdf:li>
          </rdf:Bag>
        </dc:subject>
      </cc:Work>
      <cc:License rdf:about="http://creativecommons.org/licenses/publicdomain/">
        <cc:permits rdf:resource="http://creativecommons.org/ns#Reproduction"/>
        <cc:permits rdf:resource="http://creativecommons.org/ns#Distribution"/>
        <cc:permits rdf:resource="http://creativecommons.org/ns#DerivativeWorks"/>
      </cc:License>
    </rdf:RDF>
  </metadata>
</svg>
